<svg width="24" height="24" viewBox="0 0 24 24" fill="none" xmlns="http://www.w3.org/2000/svg">
<path d="M7.5 5.5C8.88071 5.5 10 6.61929 10 8C10 9.38071 8.88071 10.5 7.5 10.5C6.11929 10.5 5 9.38071 5 8C5 6.61929 6.11929 5.5 7.5 5.5Z" fill="#2563EB"/>
<path d="M16.5 5.5C17.8807 5.5 19 6.61929 19 8C19 9.38071 17.8807 10.5 16.5 10.5C15.1193 10.5 14 9.38071 14 8C14 6.61929 15.1193 5.5 16.5 5.5Z" fill="#2563EB"/>
<path d="M4.5 14C5.88071 14 7 15.1193 7 16.5C7 17.8807 5.88071 19 4.5 19C3.11929 19 2 17.8807 2 16.5C2 15.1193 3.11929 14 4.5 14Z" fill="#2563EB"/>
<path d="M19.5 14C20.8807 14 22 15.1193 22 16.5C22 17.8807 20.8807 19 19.5 19C18.1193 19 17 17.8807 17 16.5C17 15.1193 18.1193 14 19.5 14Z" fill="#2563EB"/>
<path d="M12 11C8.13401 11 5 14.134 5 18C5 18.5523 5.44772 19 6 19H18C18.5523 19 19 18.5523 19 18C19 14.134 15.866 11 12 11Z" fill="#2563EB"/>
</svg>
